<?xml version="1.0" encoding="UTF-8" standalone="no" ?>
<!DOCTYPE svg PUBLIC "-//W3C//DTD SVG 1.1//EN" "http://www.w3.org/Graphics/SVG/1.1/DTD/svg11.dtd">
<svg xmlns="http://www.w3.org/2000/svg" xmlns:xlink="http://www.w3.org/1999/xlink" version="1.1" width="1080" height="1080" viewBox="29.2 -129.2 1080 1080" xml:space="preserve">
<desc>Created with Fabric.js 5.2.4</desc>
<defs>
</defs>
<rect x="0" y="0" width="100%" height="100%" fill="transparent"></rect>
<g transform="matrix(1 0 0 1 540 540)" id="445513bd-1e6e-4d7c-bf92-09597b3685de"  >
<rect style="stroke: none; stroke-width: 1; stroke-dasharray: none; stroke-linecap: butt; stroke-dashoffset: 0; stroke-linejoin: miter; stroke-miterlimit: 4; fill: rgb(255,255,255); fill-rule: nonzero; opacity: 1; visibility: hidden;" vector-effect="non-scaling-stroke"  x="-540" y="-540" rx="0" ry="0" width="1080" height="1080" />
</g>
<g transform="matrix(1 0 0 1 540 540)" id="99ca6c4b-28a5-4dd9-a594-081b9c21faeb"  >
</g>
<g transform="matrix(1 0 0 1 540 540)"  >
<rect style="stroke: none; stroke-width: 1; stroke-dasharray: none; stroke-linecap: butt; stroke-dashoffset: 0; stroke-linejoin: miter; stroke-miterlimit: 4; fill: rgb(255,255,255); fill-rule: nonzero; opacity: 1; visibility: hidden;" vector-effect="non-scaling-stroke"  x="-540" y="-540" rx="0" ry="0" width="1080" height="1080" />
</g>
<g transform="matrix(1 0 0 1 854.74 401.02)"  >
<circle style="stroke: none; stroke-width: 1; stroke-dasharray: none; stroke-linecap: butt; stroke-dashoffset: 0; stroke-linejoin: miter; stroke-miterlimit: 4; fill: rgb(198,151,73); fill-rule: nonzero; opacity: 0.4;" vector-effect="non-scaling-stroke"  cx="0" cy="0" r="21.92017" />
</g>
<g transform="matrix(1 0 0 1 392.57 271.09)"  >
<circle style="stroke: none; stroke-width: 1; stroke-dasharray: none; stroke-linecap: butt; stroke-dashoffset: 0; stroke-linejoin: miter; stroke-miterlimit: 4; fill: rgb(198,151,73); fill-rule: nonzero; opacity: 0.4;" vector-effect="non-scaling-stroke"  cx="0" cy="0" r="31.2479" />
</g>
<g transform="matrix(1 0 0 1 334.74 286.02)"  >
<circle style="stroke: none; stroke-width: 1; stroke-dasharray: none; stroke-linecap: butt; stroke-dashoffset: 0; stroke-linejoin: miter; stroke-miterlimit: 4; fill: rgb(198,151,73); fill-rule: nonzero; opacity: 0.28;" vector-effect="non-scaling-stroke"  cx="0" cy="0" r="21.92017" />
</g>
<g transform="matrix(1 0 0 1 886.51 658.39)"  >
<path style="stroke: none; stroke-width: 1; stroke-dasharray: none; stroke-linecap: butt; stroke-dashoffset: 0; stroke-linejoin: miter; stroke-miterlimit: 4; fill: rgb(47,46,65); fill-rule: nonzero; opacity: 1;" vector-effect="non-scaling-stroke"  transform=" translate(-946.46, -606.01)" d="M 933.04867 593.76205 C 915.72858 612.72429 915.0996700000001 640.34654 915.0996700000001 640.34654 C 915.0996700000001 640.34654 942.55217 637.22491 959.87225 618.26267 C 977.19233 599.3004299999999 977.82125 571.67818 977.82125 571.67818 C 977.82125 571.67818 950.36875 574.7998 933.04867 593.76205 Z" stroke-linecap="round" />
</g>
<g transform="matrix(1 0 0 1 865.1 647.89)"  >
<path style="stroke: none; stroke-width: 1; stroke-dasharray: none; stroke-linecap: butt; stroke-dashoffset: 0; stroke-linejoin: miter; stroke-miterlimit: 4; fill: rgb(198,151,73); fill-rule: nonzero; opacity: 1;" vector-effect="non-scaling-stroke"  transform=" translate(-925.05, -595.51)" d="M 942.83253 599.21845 C 937.59153 624.35974 915.56074 641.0338899999999 915.56074 641.0338899999999 C 915.56074 641.0338899999999 902.02723 616.9459599999999 907.26821 591.80468 C 912.5091899999999 566.6634 934.54 549.98924 934.54 549.98924 C 934.54 549.98924 948.07351 574.07717 942.83253 599.21845 Z" stroke-linecap="round" />
</g>
<g transform="matrix(1 0 0 1 554.88 583.29)"  >
<polygon style="stroke: none; stroke-width: 1; stroke-dasharray: none; stroke-linecap: butt; stroke-dashoffset: 0; stroke-linejoin: miter; stroke-miterlimit: 4; fill: rgb(220,220,220); fill-rule: nonzero; opacity: 1;" vector-effect="non-scaling-stroke"  points="305.5,-191.12 305.5,108.59 205.6,191.12 -305.5,191.12 -305.5,-123.07 -156.37,-191.12 305.5,-191.12 " />
</g>
<g transform="matrix(1 0 0 1 554.88 426.19)"  >
<polygon style="stroke: none; stroke-width: 1; stroke-dasharray: none; stroke-linecap: butt; stroke-dashoffset: 0; stroke-linejoin: miter; stroke-miterlimit: 4; fill: rgb(0,0,0); fill-rule: nonzero; opacity: 0.1;" vector-effect="non-scaling-stroke"  points="305.5,-34.03 305.5,-32.82 269.64,-8.82 205.6,34.02 -305.5,34.02 -156.37,-34.03 305.5,-34.03 " />
</g>
<g transform="matrix(1 0 0 1 810.43 583.29)"  >
<polygon style="stroke: none; stroke-width: 1; stroke-dasharray: none; stroke-linecap: butt; stroke-dashoffset: 0; stroke-linejoin: miter; stroke-miterlimit: 4; fill: rgb(0,0,0); fill-rule: nonzero; opacity: 0.1;" vector-effect="non-scaling-stroke"  points="49.95,-191.12 49.95,108.59 -49.95,191.12 -49.23,-123.79 14.09,-165.91 49.37,-191.12 49.95,-191.12 " />
</g>
<g transform="matrix(1 0 0 1 575.15 426.92)"  >
<polygon style="stroke: none; stroke-width: 1; stroke-dasharray: none; stroke-linecap: butt; stroke-dashoffset: 0; stroke-linejoin: miter; stroke-miterlimit: 4; fill: rgb(47,46,65); fill-rule: nonzero; opacity: 1;" vector-effect="non-scaling-stroke"  points="150.58,6.52 -160.71,6.52 -137.55,-6.52 160.71,-6.52 150.58,6.52 " />
</g>
<g transform="matrix(1 0 0 1 966.48 804.95)"  >
<path style="stroke: none; stroke-width: 1; stroke-dasharray: none; stroke-linecap: butt; stroke-dashoffset: 0; stroke-linejoin: miter; stroke-miterlimit: 4; fill: rgb(47,46,65); fill-rule: nonzero; opacity: 1;" vector-effect="non-scaling-stroke"  transform=" translate(-1026.43, -752.57)" d="M 1054.35223 738.3321 C 1054.35223 738.3321 1060.387 763.5684299999999 1054.90085 764.66566 C 1049.4147 765.7628900000001 1022.53251 765.40874 1015.94912 766.50597 C 1009.36573 767.6032000000001 995.65034 765.7628900000001 995.65034 760.8253500000001 C 995.65034 755.8878100000001 1009.91434 752.5961100000001 1009.91434 752.5961100000001 C 1009.91434 752.5961100000001 1030.21313 741.6238000000001 1030.7617400000001 741.07518 C 1031.3103500000002 740.52656 1054.35223 738.3321 1054.35223 738.3321 Z" stroke-linecap="round" />
</g>
<g transform="matrix(1 0 0 1 978.1 718.02)"  >
<path style="stroke: none; stroke-width: 1; stroke-dasharray: none; stroke-linecap: butt; stroke-dashoffset: 0; stroke-linejoin: miter; stroke-miterlimit: 4; fill: rgb(87,90,137); fill-rule: nonzero; opacity: 1;" vector-effect="non-scaling-stroke"  transform=" translate(-1038.05, -665.64)" d="M 1049.41469 589.65722 C 1049.41469 589.65722 1047.76884 608.31016 1047.76884 609.9560100000001 C 1047.76884 611.6018600000002 1049.41469 637.3868000000001 1047.76884 638.4840100000001 C 1046.1229899999998 639.5812200000001 1048.86607 647.2618600000001 1048.86607 650.0049400000001 C 1048.86607 652.7480200000002 1057.64393 698.2831300000001 1055.44946 715.8388400000001 C 1053.2549900000001 733.3945500000001 1058.74116 731.7486900000001 1057.0953100000002 733.3945400000001 C 1055.4494600000003 735.0403900000001 1055.44946 735.0403900000001 1055.44946 738.3320800000001 C 1055.44946 741.6237700000001 1037.89376 744.3668600000001 1037.89376 744.3668600000001 L 1018.6922 623.12279 L 1028.56729 586.91414 Z" stroke-linecap="round" />
</g>
<g transform="matrix(1 0 0 1 978.1 718.02)"  >
<path style="stroke: none; stroke-width: 1; stroke-dasharray: none; stroke-linecap: butt; stroke-dashoffset: 0; stroke-linejoin: miter; stroke-miterlimit: 4; fill: rgb(47,46,65); fill-rule: nonzero; opacity: 1;" vector-effect="non-scaling-stroke"  transform=" translate(-1038.05, -665.64)" d="M 1049.41469 589.65722 C 1049.41469 589.65722 1047.76884 608.31016 1047.76884 609.9560100000001 C 1047.76884 611.6018600000002 1049.41469 637.3868000000001 1047.76884 638.4840100000001 C 1046.1229899999998 639.5812200000001 1048.86607 647.2618600000001 1048.86607 650.0049400000001 C 1048.86607 652.7480200000002 1057.64393 698.2831300000001 1055.44946 715.8388400000001 C 1053.2549900000001 733.3945500000001 1058.74116 731.7486900000001 1057.0953100000002 733.3945400000001 C 1055.4494600000003 735.0403900000001 1055.44946 735.0403900000001 1055.44946 738.3320800000001 C 1055.44946 741.6237700000001 1037.89376 744.3668600000001 1037.89376 744.3668600000001 L 1018.6922 623.12279 L 1028.56729 586.91414 Z" stroke-linecap="round" />
</g>
<g transform="matrix(1 0 0 1 958.3 807.65)"  >
<path style="stroke: none; stroke-width: 1; stroke-dasharray: none; stroke-linecap: butt; stroke-dashoffset: 0; stroke-linejoin: miter; stroke-miterlimit: 4; fill: rgb(47,46,65); fill-rule: nonzero; opacity: 1;" vector-effect="non-scaling-stroke"  transform=" translate(-1018.27, -755.27)" d="M 1046.67161 746.01272 C 1046.67161 746.01272 1052.15777 765.76289 1046.67161 766.8601199999999 C 1041.1854500000002 767.9573499999999 1014.3032800000001 765.6031999999999 1007.7198900000001 766.70044 C 1001.1365000000001 767.79768 987.4211 767.95736 987.4211 763.01981 C 987.4211 758.08226 1001.6851 754.79058 1001.6851 754.79058 C 1001.6851 754.79058 1021.9838900000001 743.81826 1022.5325 743.26965 C 1023.08111 742.7210399999999 1046.67161 746.01272 1046.67161 746.01272 Z" stroke-linecap="round" />
</g>
<g transform="matrix(1 0 0 1 968.57 713.63)"  >
<path style="stroke: none; stroke-width: 1; stroke-dasharray: none; stroke-linecap: butt; stroke-dashoffset: 0; stroke-linejoin: miter; stroke-miterlimit: 4; fill: rgb(47,46,65); fill-rule: nonzero; opacity: 1;" vector-effect="non-scaling-stroke"  transform=" translate(-1028.52, -661.25)" d="M 1054.35223 567.71259 C 1054.35223 567.71259 1060.93562 583.62245 1053.2549999999999 591.85168 C 1045.5743799999998 600.08091 1036.7965299999998 616.5394 1036.7965299999998 617.63663 C 1036.7965299999998 618.7338599999999 1052.1577699999998 727.9084 1049.9633 735.04041 C 1047.76883 742.1724199999999 1048.31746 746.56134 1048.8660699999998 747.6585699999999 C 1049.4146799999996 748.7557999999999 1043.3799099999999 754.7905699999999 1036.7965299999998 754.7905699999999 C 1030.2131499999998 754.7905699999999 1020.3380499999998 749.8530299999999 1019.2408199999999 745.4640999999999 C 1018.1435899999999 741.07517 1020.8866699999999 703.2206799999999 1020.3380499999998 696.08868 C 1019.7894299999998 688.95668 1017.0463599999998 678.53297 1015.9491199999999 676.3385099999999 C 1014.8518799999999 674.1440499999999 1008.8171199999999 671.94958 1007.7198899999999 665.36619 C 1006.6226599999998 658.7828 997.8447999999999 574.84458 1000.5878899999999 572.10151 C 1003.33098 569.35844 1054.35223 567.71259 1054.35223 567.71259 Z" stroke-linecap="round" />
</g>
<g transform="matrix(1 0 0 1 952.7 475.25)"  >
<circle style="stroke: none; stroke-width: 1; stroke-dasharray: none; stroke-linecap: butt; stroke-dashoffset: 0; stroke-linejoin: miter; stroke-miterlimit: 4; fill: rgb(255,185,185); fill-rule: nonzero; opacity: 1;" vector-effect="non-scaling-stroke"  cx="0" cy="0" r="18.65294" />
</g>
<g transform="matrix(1 0 0 1 951.59 497.29)"  >
<path style="stroke: none; stroke-width: 1; stroke-dasharray: none; stroke-linecap: butt; stroke-dashoffset: 0; stroke-linejoin: miter; stroke-miterlimit: 4; fill: rgb(255,185,185); fill-rule: nonzero; opacity: 1;" vector-effect="non-scaling-stroke"  transform=" translate(-1011.56, -444.92)" d="M 1024.17836 432.20449 C 1024.17836 432.20449 1020.3380500000001 452.50327000000004 1023.0811300000001 454.69773000000004 C 1025.8242100000002 456.89219 1002.2337300000002 460.18389 1002.2337300000002 460.18389 C 1002.2337300000002 460.18389 999.4906500000002 433.30172000000005 998.9420400000001 430.55864 C 998.3934300000001 427.81556 1024.17836 432.20449 1024.17836 432.20449 Z" stroke-linecap="round" />
</g>
<g transform="matrix(1 0 0 1 962.99 562.27)"  >
<path style="stroke: none; stroke-width: 1; stroke-dasharray: none; stroke-linecap: butt; stroke-dashoffset: 0; stroke-linejoin: miter; stroke-miterlimit: 4; fill: rgb(198,151,73); fill-rule: nonzero; opacity: 1;" vector-effect="non-scaling-stroke"  transform=" translate(-1022.93, -509.9)" d="M 998.942 458.538 C 998.942 458.538 1005.52538 439.33645 1032.40756 444.82261 C 1032.40756 444.82261 1037.3451 446.46846 1035.6992500000001 448.1143 C 1034.0534000000002 449.76014000000004 1032.40756 449.76015 1034.60202 451.406 C 1036.79648 453.05185 1039.53956 451.406 1037.89372 453.05185 C 1036.2478800000001 454.6977 1052.70634 464.57278 1051.60911 483.22572 C 1050.5118800000002 501.87866 1055.4494200000001 528.21221 1051.60911 532.60114 C 1047.7688 536.99007 1054.35219 556.19162 1053.2549600000002 560.03193 C 1052.1577300000004 563.87224 1059.8383500000002 568.80978 1056.5466500000002 570.45563 C 1053.2549500000002 572.10148 994.0044500000002 581.9765600000001 992.3586500000002 570.45563 C 990.7128500000002 558.9347 991.8100300000002 567.16393 990.1641800000002 564.4208500000001 C 988.5183300000002 561.6777700000001 987.9697200000002 556.7402300000001 989.0669500000002 550.7054600000001 C 990.1641800000003 544.6706900000001 992.9072600000003 529.8580600000001 991.8100300000002 524.3719000000001 C 990.7128000000001 518.88574 991.8100300000002 472.8020200000001 995.1017200000002 467.3159000000001 C 998.3934100000002 461.82978000000014 998.942 458.538 998.942 458.538 Z" stroke-linecap="round" />
</g>
<g transform="matrix(1 0 0 1 948.52 659.85)"  >
<path style="stroke: none; stroke-width: 1; stroke-dasharray: none; stroke-linecap: butt; stroke-dashoffset: 0; stroke-linejoin: miter; stroke-miterlimit: 4; fill: rgb(255,185,185); fill-rule: nonzero; opacity: 1;" vector-effect="non-scaling-stroke"  transform=" translate(-1005.97, -607.49)" d="M 1010.463 592.4003 C 1010.463 592.4003 1018.69223 623.6714000000001 1008.2685299999999 623.6714000000001 C 997.8448299999999 623.6714000000001 998.3934499999999 591.30307 998.3934499999999 591.30307 Z" stroke-linecap="round" />
</g>
<g transform="matrix(1 0 0 1 966.23 472.48)"  >
<path style="stroke: none; stroke-width: 1; stroke-dasharray: none; stroke-linecap: butt; stroke-dashoffset: 0; stroke-linejoin: miter; stroke-miterlimit: 4; fill: rgb(47,46,65); fill-rule: nonzero; opacity: 1;" vector-effect="non-scaling-stroke"  transform=" translate(-1026.19, -420.1)" d="M 1004.42819 422.878 C 1004.42819 424.469 1006.73235 425.47843 1010.30385 425.70884 L 1010.30934 425.70884 C 1011.8235570045372 425.79487274429033 1013.3421259077443 425.76553468374163 1014.85189 425.62108 C 1017.13409 425.4126 1018.07776 427.55767000000003 1018.46732 430.38855 C 1019.10367 435.05728 1018.2149099999999 441.60226 1019.24082 442.62817 C 1020.65629 444.04357 1030.97572 442.62268 1034.20158 439.41329 C 1034.7037152961475 438.9629684977728 1035.0383009961452 438.35567659195135 1035.15068 437.69062 C 1035.4891175743523 435.73083556597993 1036.45575358348 433.9342830544292 1037.90474 432.57203000000004 C 1039.8084199999998 430.49279 1042.51855 428.18859000000003 1045.57438 424.52385000000004 C 1051.06054 417.94046000000003 1045.57438 417.39185000000003 1043.92853 412.45430000000005 C 1042.2826799999998 407.51675000000006 1039.5395999999998 405.87091000000004 1039.5395999999998 402.57921000000005 C 1039.5395999999998 399.28751000000005 1026.9214399999998 396.54444000000007 1016.4977399999998 397.09306000000004 C 1006.0740399999997 397.64168 1008.2684999999998 410.80845000000005 1008.2684999999998 410.80845000000005 C 1008.2684999999998 410.80845000000005 1007.6485699999998 412.39945000000006 1006.9079499999998 414.45127 C 1005.9060706616931 417.02600049565024 1005.0920007582002 419.6699179470759 1004.4721299999998 422.3622700000001 C 1004.4463267770547 422.5330466373139 1004.4316491810944 422.7053196588122 1004.42819 422.878 Z" stroke-linecap="round" />
</g>
<g transform="matrix(1 0 0 1 953.42 585.53)"  >
<path style="stroke: none; stroke-width: 1; stroke-dasharray: none; stroke-linecap: butt; stroke-dashoffset: 0; stroke-linejoin: miter; stroke-miterlimit: 4; fill: rgb(0,0,0); fill-rule: nonzero; opacity: 0.1;" vector-effect="non-scaling-stroke"  transform=" translate(-1013.38, -533.15)" d="M 1006.62266 466.76728 C 1006.62266 466.76728 1025.27559 465.67005 1026.92144 493.10084 C 1028.5672900000002 520.53163 1028.0186700000002 546.31657 1028.0186700000002 546.86519 C 1028.0186700000002 547.41381 1020.3380500000002 599.5323099999999 1013.2060500000001 599.5323099999999 C 1006.07405 599.5323099999999 1000.5878800000002 598.4350699999999 998.9420500000001 595.6919999999999 C 997.2962200000001 592.9489299999999 1003.3309700000001 553.4485799999999 1003.3309700000001 553.4485799999999 C 1003.3309700000001 553.4485799999999 1006.07405 511.7537799999999 1001.6851200000001 498.5869999999999 C 997.2961900000001 485.42021999999986 996.74757 468.41313 1006.62266 466.76728 Z" stroke-linecap="round" />
</g>
<g transform="matrix(1 0 0 1 950.67 582.8)"  >
<path style="stroke: none; stroke-width: 1; stroke-dasharray: none; stroke-linecap: butt; stroke-dashoffset: 0; stroke-linejoin: miter; stroke-miterlimit: 4; fill: rgb(198,151,73); fill-rule: nonzero; opacity: 1;" vector-effect="non-scaling-stroke"  transform=" translate(-1010.64, -530.4)" d="M 1003.87958 464.0242 C 1003.87958 464.0242 1022.53251 462.92697 1024.17836 490.35776 C 1025.8242100000002 517.78855 1025.2755900000002 543.57349 1025.2755900000002 544.12211 C 1025.2755900000002 544.67073 1017.5949700000002 596.78923 1010.4629700000002 596.78923 C 1003.3309700000001 596.78923 997.8448000000002 595.692 996.1989700000001 592.9489199999999 C 994.5531400000001 590.2058399999999 1000.5878900000001 550.7054999999999 1000.5878900000001 550.7054999999999 C 1000.5878900000001 550.7054999999999 1003.3309700000001 509.01069999999993 998.9420500000001 495.8439199999999 C 994.5531300000001 482.6771399999999 994.00449 465.67005 1003.87958 464.0242 Z" stroke-linecap="round" />
</g>
<g transform="matrix(1 0 0 1 626.92 241.42)"  >
<path style="stroke: none; stroke-width: 1; stroke-dasharray: none; stroke-linecap: butt; stroke-dashoffset: 0; stroke-linejoin: miter; stroke-miterlimit: 4; fill: rgb(160,97,106); fill-rule: nonzero; opacity: 1;" vector-effect="non-scaling-stroke"  transform=" translate(-686.89, -189.06)" d="M 694.57306 195.85392 C 694.57306 195.85392 686.44401 172.82162 680.57306 180.04744 C 674.7021100000001 187.27326 689.6053400000001 199.46683 689.6053400000001 199.46683 Z" stroke-linecap="round" />
</g>
<g transform="matrix(1 0 0 1 657.88 251.88)"  >
<path style="stroke: none; stroke-width: 1; stroke-dasharray: none; stroke-linecap: butt; stroke-dashoffset: 0; stroke-linejoin: miter; stroke-miterlimit: 4; fill: rgb(198,151,73); fill-rule: nonzero; opacity: 1;" vector-effect="non-scaling-stroke"  transform=" translate(-717.83, -199.52)" d="M 732.96023 173.27323 L 728.07 175.08556 C 728.07 175.08556 725.73437 185.46679999999998 726.63759 187.27326 C 727.5408100000001 189.07972 727.9924400000001 187.72486999999998 726.63759 191.33777999999998 C 725.28274 194.95068999999998 721.2182300000001 204.43457999999998 720.7665900000001 205.78941999999998 C 720.3149500000001 207.14425999999997 694.5729900000001 197.20875999999998 694.5729900000001 192.24101 C 694.5729900000001 192.24101 689.1536200000002 198.56359999999998 686.4439400000001 199.91843999999998 C 686.4439400000001 199.91843999999998 716.2504500000001 221.59589999999997 720.3149400000001 224.30558999999997 C 724.3794300000001 227.01527999999996 726.6375300000001 225.66042999999996 730.2504400000001 222.49912999999998 C 733.8633500000002 219.33783 749.2182200000001 193.14423999999997 749.2182200000001 193.14423999999997 Z" stroke-linecap="round" />
</g>
<g transform="matrix(1 0 0 1 639.13 395.92)"  >
<path style="stroke: none; stroke-width: 1; stroke-dasharray: none; stroke-linecap: butt; stroke-dashoffset: 0; stroke-linejoin: miter; stroke-miterlimit: 4; fill: rgb(47,46,65); fill-rule: nonzero; opacity: 1;" vector-effect="non-scaling-stroke"  transform=" translate(-699.09, -343.52)" d="M 719.86343 333.59612 C 719.86343 333.59612 720.31504 338.56387 721.21827 339.01547999999997 C 722.1215 339.4670899999999 728.8956999999999 350.75748 721.21827 353.01547999999997 C 713.54084 355.27347999999995 709.0246999999999 354.37032 707.21827 355.27354999999994 C 705.41184 356.1767799999999 673.7988499999999 357.98322999999993 673.34727 353.01547999999997 C 672.8956900000001 348.04773 688.70214 347.14448 688.70214 347.14448 C 688.70214 347.14448 703.15378 337.66059 705.41185 332.69284 C 707.6699199999999 327.72508999999997 719.86343 333.59612 719.86343 333.59612 Z" stroke-linecap="round" />
</g>
<g transform="matrix(1 0 0 1 740.32 410.83)"  >
<path style="stroke: none; stroke-width: 1; stroke-dasharray: none; stroke-linecap: butt; stroke-dashoffset: 0; stroke-linejoin: miter; stroke-miterlimit: 4; fill: rgb(47,46,65); fill-rule: nonzero; opacity: 1;" vector-effect="non-scaling-stroke"  transform=" translate(-800.27, -358.45)" d="M 811.541 342.62839 C 811.541 342.62839 822.3797300000001 361.14456 819.6700500000001 363.40263000000004 C 816.96037 365.6607000000001 790.57122 373.88963000000007 786.7022400000001 374.24136000000004 C 781.73449 374.69297000000006 778.1215800000001 370.62845000000004 782.1861100000001 368.37036000000006 C 786.2506400000001 366.1122700000001 794.8312900000001 356.62836000000004 794.8312900000001 353.4671000000001 L 794.8312900000001 345.33805000000007 Z" stroke-linecap="round" />
</g>
<g transform="matrix(1 0 0 1 703.85 337.57)"  >
<path style="stroke: none; stroke-width: 1; stroke-dasharray: none; stroke-linecap: butt; stroke-dashoffset: 0; stroke-linejoin: miter; stroke-miterlimit: 4; fill: rgb(47,46,65); fill-rule: nonzero; opacity: 1;" vector-effect="non-scaling-stroke"  transform=" translate(-763.8, -285.2)" d="M 821.92814 221.5959 C 821.92814 221.5959 831.41203 233.3379 816.50877 252.30564 L 791.67 283.9186 C 791.67 283.9186 807.02486 308.30575000000005 807.4764799999999 320.95093 C 807.9280999999999 333.59611 811.08939 330.88643 811.9926199999999 336.30580000000003 C 812.8958499999998 341.72517000000005 816.9603699999999 339.01548 813.7990699999999 343.08001 C 810.6377699999999 347.14454 798.89582 350.75744000000003 795.2829099999999 347.59614 C 792.765186039192 345.2932141278034 791.4350466191042 341.96786741839855 791.6699999999998 338.56387 C 791.6699999999998 336.75741 785.3473999999999 326.3703 784.8957899999998 323.209 C 784.4441799999997 320.0477 767.7344699999998 294.30572 767.7344699999998 294.30572 C 767.7344699999998 294.30572 762.3150999999998 278.95085 768.6376899999998 270.37019 C 774.9602799999998 261.78952999999996 779.1382799999998 249.61971999999997 779.1382799999998 249.61971999999997 C 779.1382799999998 249.61971999999997 760.5086499999998 272.17663999999996 747.4118499999997 277.59601 C 747.4118499999997 277.59601 742.4440999999997 278.49924 743.3473199999997 280.75730999999996 C 744.2505399999998 283.01537999999994 743.3473199999997 284.37021999999996 741.9924799999998 286.62830999999994 C 740.6376399999998 288.8863999999999 731.1537499999997 315.07996999999995 727.9924799999998 321.85417999999993 C 724.8312099999998 328.6283899999999 726.1860199999998 332.6929099999999 722.5731099999998 334.9509799999999 C 718.9601999999999 337.2090499999999 702.7021099999998 335.4025899999999 702.7021099999998 333.1445199999999 C 702.7021099999998 330.88644999999985 704.9601799999998 325.01551999999987 706.3150199999999 321.8541799999999 C 707.66986 318.6928399999999 718.5085999999999 282.11217999999985 717.6053699999999 275.78956999999986 C 716.7021399999999 269.46695999999986 718.0569799999998 260.88631999999984 724.8311899999999 257.27340999999984 C 731.6053999999999 253.66049999999984 765.9280399999999 224.30560999999983 767.7344999999999 224.30560999999983 C 769.5409599999999 224.30560999999983 821.92814 221.5959 821.92814 221.5959 Z" stroke-linecap="round" />
</g>
<g transform="matrix(1 0 0 1 671.2 184.11)"  >
<circle style="stroke: none; stroke-width: 1; stroke-dasharray: none; stroke-linecap: butt; stroke-dashoffset: 0; stroke-linejoin: miter; stroke-miterlimit: 4; fill: rgb(160,97,106); fill-rule: nonzero; opacity: 1;" vector-effect="non-scaling-stroke"  cx="0" cy="0" r="18.96778" />
</g>
<g transform="matrix(1 0 0 1 684.52 202.85)"  >
<path style="stroke: none; stroke-width: 1; stroke-dasharray: none; stroke-linecap: butt; stroke-dashoffset: 0; stroke-linejoin: miter; stroke-miterlimit: 4; fill: rgb(160,97,106); fill-rule: nonzero; opacity: 1;" vector-effect="non-scaling-stroke"  transform=" translate(-744.47, -150.47)" d="M 746.50864 133.53122 C 746.50864 133.53122 752.37964 143.91834 759.60544 145.27321999999998 C 766.8312400000001 146.62809999999996 740.6376600000001 167.40229 740.6376600000001 167.40229 C 740.6376600000001 167.40229 734.3150700000001 147.53128999999998 728.8956600000001 146.62806 C 723.4762500000002 145.72483000000003 746.50864 133.53122 746.50864 133.53122 Z" stroke-linecap="round" />
</g>
<g transform="matrix(1 0 0 1 715.73 239.45)"  >
<path style="stroke: none; stroke-width: 1; stroke-dasharray: none; stroke-linecap: butt; stroke-dashoffset: 0; stroke-linejoin: miter; stroke-miterlimit: 4; fill: rgb(198,151,73); fill-rule: nonzero; opacity: 1;" vector-effect="non-scaling-stroke"  transform=" translate(-775.68, -187.07)" d="M 727.99248 175.98291 C 727.99248 181.85391 745.60541 198.5636 745.60541 198.5636 L 762.31512 212.5636 C 762.31512 212.5636 762.76674 217.53135 764.57319 217.98296000000002 C 766.3796399999999 218.43457000000004 768.63771 218.43458 766.8312599999999 221.14426000000003 C 765.0248099999999 223.85394000000005 760.5086699999999 229.72492000000003 764.57319 230.62815000000003 C 765.7985448281789 230.81451431066682 767.0333747226405 230.93211175247058 768.27188 230.98039000000003 C 769.35582 231.04363000000004 770.62929 231.10234000000003 772.06098 231.15653000000003 C 775.40288 231.27395000000004 779.58483 231.35072000000002 784.11453 231.31910000000002 Q 786.0452399999999 231.31232000000003 788.0435299999999 231.27395 C 805.1190799999999 230.93524000000002 824.89978 228.97071000000003 823.28297 222.4991 C 820.5732899999999 211.66037 822.37974 208.04746 816.5087599999999 202.17648 C 810.6377799999999 196.3055 801.1538999999999 175.98288 801.1538999999999 175.98288 C 801.1538999999999 175.98288 782.18612 143.91831 766.3796399999999 143.91831 L 763.0963899999999 143.05571 C 759.9677962208641 142.23152231431126 756.6627531096931 143.5011665526996 754.8906099999999 146.20799 C 751.7202699999999 151.03574 746.72088 158.28866 743.7989499999999 160.62798999999998 C 739.2828099999999 164.24090999999999 738.5782699999999 161.64864999999998 738.5782699999999 161.64864999999998 C 738.5782699999999 161.64864999999998 727.99248 170.11193 727.99248 175.98291 Z" stroke-linecap="round" />
</g>
<g transform="matrix(1 0 0 1 708.26 309.16)"  >
<path style="stroke: none; stroke-width: 1; stroke-dasharray: none; stroke-linecap: butt; stroke-dashoffset: 0; stroke-linejoin: miter; stroke-miterlimit: 4; fill: rgb(160,97,106); fill-rule: nonzero; opacity: 1;" vector-effect="non-scaling-stroke"  transform=" translate(-768.21, -256.78)" d="M 768.1861 244.62821 C 768.1861 244.62821 755.0893 264.95082 763.21835 268.56373 C 771.3474 272.17664 775.86353 247.33789000000002 775.86353 247.33789000000002 Z" stroke-linecap="round" />
</g>
<g transform="matrix(1 0 0 1 673.03 175.71)"  >
<path style="stroke: none; stroke-width: 1; stroke-dasharray: none; stroke-linecap: butt; stroke-dashoffset: 0; stroke-linejoin: miter; stroke-miterlimit: 4; fill: rgb(47,46,65); fill-rule: nonzero; opacity: 1;" vector-effect="non-scaling-stroke"  transform=" translate(-732.98, -123.33)" d="M 743.55383 129.58233 C 742.82583 129.49047000000002 742.59564 128.57195000000002 742.4731099999999 127.84851000000002 C 741.8169599999999 123.97445000000002 738.9298799999999 120.30080000000002 735.0507399999999 119.67541000000001 C 733.5680604725412 119.47816173055696 732.0603565171197 119.59966882628281 730.6283999999999 120.03181000000001 C 728.5770145739219 120.59471098143055 726.6513721248509 121.5425443573983 724.9540699999999 122.82481000000001 C 724.1235687225762 123.58395549404653 723.1629918417129 124.18713488920613 722.1184399999999 124.60540000000002 C 721.4066899999998 124.81440000000002 718.3846599999998 126.15796000000002 717.6785499999999 126.38529000000001 C 716.1260899999999 126.88509 714.8413999999999 128.51001000000002 713.2425499999998 128.18829000000002 C 711.7128899999998 127.88048000000002 711.1319499999998 126.03336000000003 710.8860999999998 124.49254000000002 C 710.3259899999998 120.98223000000002 712.3352299999998 115.74454000000001 714.3329099999999 112.80424000000002 C 715.8489099999998 110.57297000000003 718.4142099999999 109.28885000000002 720.9791299999998 108.45344000000003 C 723.9839766632592 107.54132286406978 727.0714680079514 106.92782931722556 730.1967599999998 106.62187000000003 C 734.4157599999999 106.12360000000002 738.7854599999998 105.85924000000003 742.8286799999998 107.16335000000004 C 746.8718999999999 108.46746000000005 750.5534499999999 111.65761000000003 751.3082499999998 115.83835000000003 C 751.4654799999998 116.70923000000003 751.4949399999998 117.60125000000004 751.6876199999998 118.46498000000004 C 752.1576799999998 120.57205000000005 753.5518199999998 122.34317000000004 754.3650599999999 124.34298000000004 C 755.5514938757184 127.31301780179783 755.4260555637532 130.64636021374844 754.0197599999999 133.51883000000004 C 752.8936299999999 135.78349000000003 750.9352899999999 137.95974000000004 751.3579199999999 140.45339000000004 L 747.8728699999999 137.70539000000005 C 746.8351018760565 137.1157072886521 746.3503325758534 135.88116413784954 746.7095899999999 134.74291000000005 L 747.2162199999999 130.37915000000004 C 747.3915799757705 129.58855562250244 747.3124765192205 128.76275753795574 746.9902199999999 128.01983000000004 C 745.4412 125.314 744.76757 129.73548 743.55383 129.58233 Z" stroke-linecap="round" />
</g>
<g transform="matrix(1 0 0 1 717.57 242.94)"  >
<path style="stroke: none; stroke-width: 1; stroke-dasharray: none; stroke-linecap: butt; stroke-dashoffset: 0; stroke-linejoin: miter; stroke-miterlimit: 4; fill: rgb(0,0,0); fill-rule: nonzero; opacity: 0.1;" vector-effect="non-scaling-stroke"  transform=" translate(-777.52, -190.56)" d="M 776.31515 213.46686 L 772.06098 231.15655999999998 C 776.35131 231.31011999999998 782.02798 231.39140999999998 788.04354 231.27398 C 789.56102 226.72171 791.01068 221.97523999999999 792.12163 217.53137999999998 C 796.18615 201.27328 789.4119499999999 176.43453 785.79904 164.69257 C 782.18613 152.95060999999998 773.15385 149.78931 773.15385 149.78931 C 769.4509182036926 151.09155324607985 765.9531665745737 152.91646992129537 762.76674 155.20868000000002 C 756.89576 159.2732 776.31515 213.46686 776.31515 213.46686 Z" stroke-linecap="round" />
</g>
<g transform="matrix(1 0 0 1 718.03 247.47)"  >
<path style="stroke: none; stroke-width: 1; stroke-dasharray: none; stroke-linecap: butt; stroke-dashoffset: 0; stroke-linejoin: miter; stroke-miterlimit: 4; fill: rgb(0,0,0); fill-rule: nonzero; opacity: 0.1;" vector-effect="non-scaling-stroke"  transform=" translate(-777.98, -195.09)" d="M 772.70224 212.56363 L 768.27188 230.98041999999998 C 769.35582 231.04366 770.62929 231.10236999999998 772.06098 231.15655999999998 C 775.40288 231.27398 779.58483 231.35074999999998 784.11453 231.31912999999997 C 785.74479 226.48236999999997 787.32103 221.37912999999998 788.5087199999999 216.62812999999997 C 792.5732399999999 200.37003999999996 785.7990399999999 175.53127999999998 782.1861299999999 163.78931999999998 C 778.57322 152.04735999999997 770.6699799999999 164.91831999999997 770.6699799999999 164.91831999999997 C 770.6699799999999 164.91831999999997 773.8312699999999 157.24087999999998 767.9602899999999 161.30540999999997 C 762.0893099999998 165.36993999999996 772.70224 212.56363 772.70224 212.56363 Z" stroke-linecap="round" />
</g>
<g transform="matrix(1 0 0 1 715.76 253.42)"  >
<path style="stroke: none; stroke-width: 1; stroke-dasharray: none; stroke-linecap: butt; stroke-dashoffset: 0; stroke-linejoin: miter; stroke-miterlimit: 4; fill: rgb(198,151,73); fill-rule: nonzero; opacity: 1;" vector-effect="non-scaling-stroke"  transform=" translate(-775.71, -201.05)" d="M 771.3474 148.88609 C 771.3474 148.88609 780.37967 152.04738 783.99258 163.78933999999998 C 787.6054899999999 175.53129999999996 794.3797 200.37005999999997 790.31517 216.62814999999998 C 786.25064 232.88624 777.67 253.20887 777.67 253.20887 C 777.67 253.20887 769.08934 246.88627 765.928 248.24112 L 774.50866 212.56363 C 774.50866 212.56363 755.0893 158.37 760.96028 154.30545 C 764.1467091075903 152.01324071655893 767.6444644077126 150.18832725033622 771.3474 148.88609 Z" stroke-linecap="round" />
</g>
<g transform="matrix(1 0 0 1 540 297.8)"  >
<polygon style="stroke: none; stroke-width: 1; stroke-dasharray: none; stroke-linecap: butt; stroke-dashoffset: 0; stroke-linejoin: miter; stroke-miterlimit: 4; fill: rgb(242,242,242); fill-rule: nonzero; opacity: 1;" vector-effect="non-scaling-stroke"  points="166.93,130.19 41.99,-130.19 -166.93,-29.93 -90.1,130.19 166.93,130.19 " />
</g>
<g transform="matrix(0.9 -0.43 0.43 0.9 497.2 299.63)"  >
<rect style="stroke: none; stroke-width: 1; stroke-dasharray: none; stroke-linecap: butt; stroke-dashoffset: 0; stroke-linejoin: miter; stroke-miterlimit: 4; fill: rgb(47,46,65); fill-rule: nonzero; opacity: 1;" vector-effect="non-scaling-stroke"  x="-61.54" y="-3.82" rx="0" ry="0" width="123.08" height="7.64" />
</g>
<g transform="matrix(0.9 -0.43 0.43 0.9 526.58 360.85)"  >
<rect style="stroke: none; stroke-width: 1; stroke-dasharray: none; stroke-linecap: butt; stroke-dashoffset: 0; stroke-linejoin: miter; stroke-miterlimit: 4; fill: rgb(47,46,65); fill-rule: nonzero; opacity: 1;" vector-effect="non-scaling-stroke"  x="-61.54" y="-3.82" rx="0" ry="0" width="123.08" height="7.64" />
</g>
<g transform="matrix(0.9 -0.43 0.43 0.9 593.34 253.99)"  >
<rect style="stroke: none; stroke-width: 1; stroke-dasharray: none; stroke-linecap: butt; stroke-dashoffset: 0; stroke-linejoin: miter; stroke-miterlimit: 4; fill: rgb(47,46,65); fill-rule: nonzero; opacity: 1;" vector-effect="non-scaling-stroke"  x="-15.28" y="-15.28" rx="0" ry="0" width="30.56" height="30.56" />
</g>
<g transform="matrix(0.9 -0.43 0.43 0.9 622.72 315.22)"  >
<rect style="stroke: none; stroke-width: 1; stroke-dasharray: none; stroke-linecap: butt; stroke-dashoffset: 0; stroke-linejoin: miter; stroke-miterlimit: 4; fill: rgb(47,46,65); fill-rule: nonzero; opacity: 1;" vector-effect="non-scaling-stroke"  x="-15.28" y="-15.28" rx="0" ry="0" width="30.56" height="30.56" />
</g>
<g transform="matrix(1 0 0 1 588.38 237.25)"  >
<polygon style="stroke: none; stroke-width: 1; stroke-dasharray: none; stroke-linecap: butt; stroke-dashoffset: 0; stroke-linejoin: miter; stroke-miterlimit: 4; fill: rgb(87,184,148); fill-rule: nonzero; opacity: 1;" vector-effect="non-scaling-stroke"  points="11.39,-20.16 0.04,12.12 -15.25,6.75 -17.34,12.7 3.89,20.16 17.34,-18.07 11.39,-20.16 " />
</g>
<g transform="matrix(1 0 0 1 620.34 295.9)"  >
<polygon style="stroke: none; stroke-width: 1; stroke-dasharray: none; stroke-linecap: butt; stroke-dashoffset: 0; stroke-linejoin: miter; stroke-miterlimit: 4; fill: rgb(87,184,148); fill-rule: nonzero; opacity: 1;" vector-effect="non-scaling-stroke"  points="11.39,-20.16 0.04,12.12 -15.25,6.75 -17.34,12.7 3.88,20.16 17.34,-18.07 11.39,-20.16 " />
</g>
<g transform="matrix(-0.98 0.21 -0.21 -0.98 116.97 693.26)"  >
<rect style="stroke: none; stroke-width: 1; stroke-dasharray: none; stroke-linecap: butt; stroke-dashoffset: 0; stroke-linejoin: miter; stroke-miterlimit: 4; fill: rgb(242,242,242); fill-rule: nonzero; opacity: 1;" vector-effect="non-scaling-stroke"  x="-28.86" y="-28.86" rx="0" ry="0" width="57.72" height="57.72" />
</g>
<g transform="matrix(1 0 0 1 145.41 654.71)"  >
<path style="stroke: none; stroke-width: 1; stroke-dasharray: none; stroke-linecap: butt; stroke-dashoffset: 0; stroke-linejoin: miter; stroke-miterlimit: 4; fill: rgb(255,185,185); fill-rule: nonzero; opacity: 1;" vector-effect="non-scaling-stroke"  transform=" translate(-205.37, -602.33)" d="M 209.52991 591.4916 C 209.52991 591.4916 188.79568 606.30176 195.70709 612.22583 C 202.61849999999998 618.1499 216.44131 594.45363 216.44131 594.45363 Z" stroke-linecap="round" />
</g>
<g transform="matrix(1 0 0 1 229.13 743.81)"  >
<path style="stroke: none; stroke-width: 1; stroke-dasharray: none; stroke-linecap: butt; stroke-dashoffset: 0; stroke-linejoin: miter; stroke-miterlimit: 4; fill: rgb(255,185,185); fill-rule: nonzero; opacity: 1;" vector-effect="non-scaling-stroke"  transform=" translate(-289.09, -691.44)" d="M 305.30228 614.20052 C 305.30228 614.20052 301.3529 663.56772 300.36556 670.4791299999999 C 299.37822000000006 677.3905399999999 298.39087 739.59321 296.41618 746.5046199999999 C 294.44149 753.4160299999999 292.4668 770.2008699999999 292.4668 770.2008699999999 L 280.61868 770.2008699999999 C 280.61868 770.2008699999999 281.60602 739.5932099999999 278.64399 727.7450799999999 C 275.68195999999995 715.89695 276.66929999999996 683.3145999999999 276.66929999999996 683.3145999999999 C 276.66929999999996 683.3145999999999 270.74523999999997 625.0613 273.7073 617.1625499999999 C 276.66936 609.2637999999998 305.30228 614.20052 305.30228 614.20052 Z" stroke-linecap="round" />
</g>
<g transform="matrix(1 0 0 1 228.18 832.89)"  >
<path style="stroke: none; stroke-width: 1; stroke-dasharray: none; stroke-linecap: butt; stroke-dashoffset: 0; stroke-linejoin: miter; stroke-miterlimit: 4; fill: rgb(47,46,65); fill-rule: nonzero; opacity: 1;" vector-effect="non-scaling-stroke"  transform=" translate(-288.13, -780.51)" d="M 289.50477 767.23884 C 289.50477 767.23884 294.44149 770.20084 294.44149 772.17556 C 294.44149 774.1502800000001 293.45414999999997 779.0869700000001 294.44149 781.0616600000001 C 295.42883 783.0363500000001 302.34024999999997 790.9351 298.39087 792.90979 C 294.44149000000004 794.88448 276.6693 792.90979 276.6693 792.90979 C 276.6693 792.90979 277.65664000000004 779.0869700000001 278.64399000000003 778.09963 C 279.63134 777.11229 277.65664000000004 767.2388400000001 277.65664000000004 767.2388400000001 Z" stroke-linecap="round" />
</g>
<g transform="matrix(1 0 0 1 182.94 744.14)"  >
<path style="stroke: none; stroke-width: 1; stroke-dasharray: none; stroke-linecap: butt; stroke-dashoffset: 0; stroke-linejoin: miter; stroke-miterlimit: 4; fill: rgb(255,185,185); fill-rule: nonzero; opacity: 1;" vector-effect="non-scaling-stroke"  transform=" translate(-242.89, -691.76)" d="M 229.82555 612.99062 C 229.82555 612.99062 228.57122999999999 662.49962 228.82765 669.47652 C 229.08407000000003 676.45342 223.5368 738.4160800000001 224.77511 745.49658 C 226.01342000000002 752.5770799999999 226.21537 769.47649 226.21537 769.47649 L 237.99804 770.72014 C 237.99804 770.72014 240.22892000000002 740.17792 244.41824 728.70614 C 248.60755999999998 717.23436 251.04572 684.72838 251.04572 684.72838 C 251.04572 684.72838 263.05172 627.41871 260.93511 619.25268 C 258.81850000000003 611.0866500000001 229.82555 612.99062 229.82555 612.99062 Z" stroke-linecap="round" />
</g>
<g transform="matrix(1 0 0 1 169.14 832.66)"  >
<path style="stroke: none; stroke-width: 1; stroke-dasharray: none; stroke-linecap: butt; stroke-dashoffset: 0; stroke-linejoin: miter; stroke-miterlimit: 4; fill: rgb(47,46,65); fill-rule: nonzero; opacity: 1;" vector-effect="non-scaling-stroke"  transform=" translate(-229.09, -780.28)" d="M 229.472 766.84173 C 229.472 766.84173 224.25164 769.2692099999999 224.04436 771.23299 C 223.83708000000001 773.19677 224.30079 778.2098599999999 223.11162000000002 780.06999 C 221.92245000000003 781.93012 214.22013 789.0597799999999 217.94041 791.4381099999999 C 221.66069000000002 793.81644 239.54199 793.7181099999999 239.54199 793.7181099999999 C 239.54199 793.7181099999999 240.01099 779.8680199999999 239.13277 778.7824899999999 C 238.25455 777.69696 241.25468 768.08534 241.25468 768.08534 Z" stroke-linecap="round" />
</g>
<g transform="matrix(1 0 0 1 208.06 636.96)"  >
<path style="stroke: none; stroke-width: 1; stroke-dasharray: none; stroke-linecap: butt; stroke-dashoffset: 0; stroke-linejoin: miter; stroke-miterlimit: 4; fill: rgb(47,46,65); fill-rule: nonzero; opacity: 1;" vector-effect="non-scaling-stroke"  transform=" translate(-268.01, -584.58)" d="M 291.47946 540.14971 C 291.47946 540.14971 299.37821 541.13706 302.34025 557.92191 C 305.30229 574.70676 316.16306000000003 617.16255 307.27697 620.12458 C 298.39088 623.0866100000001 271.73258 629.0106800000001 270.74524 627.0359900000001 C 269.75790000000006 625.0613000000001 267.78324000000003 620.12458 267.78324000000003 620.12458 C 267.78324000000003 620.12458 270.74524 629.0106800000001 266.7959 629.0106800000001 C 262.84656 629.0106800000001 224.34011 623.0866100000001 225.32745000000003 620.12458 C 226.31479000000004 617.16255 228.28945000000002 595.4409800000001 228.28945000000002 595.4409800000001 C 228.28945000000002 595.4409800000001 234.21352000000002 558.90925 240.13758 552.9851900000001 C 243.60857337094757 549.6527527560119 245.4176329514342 544.949194915149 245.07430000000002 540.1497100000001 Z" stroke-linecap="round" />
</g>
<g transform="matrix(1 0 0 1 239.25 589.51)"  >
<path style="stroke: none; stroke-width: 1; stroke-dasharray: none; stroke-linecap: butt; stroke-dashoffset: 0; stroke-linejoin: miter; stroke-miterlimit: 4; fill: rgb(255,185,185); fill-rule: nonzero; opacity: 1;" vector-effect="non-scaling-stroke"  transform=" translate(-299.2, -537.15)" d="M 306.28962 532.251 C 306.28962 532.251 293.45415 529.289 291.47946 533.23834 C 289.50477 537.18768 296.41618 543.11179 299.37821 543.11179 C 302.34024000000005 543.11179 307.27697 540.14979 307.27697 540.14979 Z" stroke-linecap="round" />
</g>
<g transform="matrix(1 0 0 1 219.68 482.93)"  >
<circle style="stroke: none; stroke-width: 1; stroke-dasharray: none; stroke-linecap: butt; stroke-dashoffset: 0; stroke-linejoin: miter; stroke-miterlimit: 4; fill: rgb(255,185,185); fill-rule: nonzero; opacity: 1;" vector-effect="non-scaling-stroke"  cx="0" cy="0" r="17.77219" />
</g>
<g transform="matrix(1 0 0 1 200.42 502.51)"  >
<path style="stroke: none; stroke-width: 1; stroke-dasharray: none; stroke-linecap: butt; stroke-dashoffset: 0; stroke-linejoin: miter; stroke-miterlimit: 4; fill: rgb(255,185,185); fill-rule: nonzero; opacity: 1;" vector-effect="non-scaling-stroke"  transform=" translate(-260.38, -450.13)" d="M 276.6693 443.39 C 276.6693 443.39 273.70730000000003 457.21281 275.68196 457.21281 C 277.65662 457.21281 260.8718 466.09891 260.8718 466.09891 L 248.03632000000002 464.12422 L 244.08695000000003 458.20016 C 244.08695000000003 458.20016 264.82117000000005 444.37734 264.82117000000005 436.47859 C 264.82117000000005 428.57984 276.6693 443.39 276.6693 443.39 Z" stroke-linecap="round" />
</g>
<g transform="matrix(1 0 0 1 202.4 553.04)"  >
<path style="stroke: none; stroke-width: 1; stroke-dasharray: none; stroke-linecap: butt; stroke-dashoffset: 0; stroke-linejoin: miter; stroke-miterlimit: 4; fill: rgb(198,151,73); fill-rule: nonzero; opacity: 1;" vector-effect="non-scaling-stroke"  transform=" translate(-262.35, -500.66)" d="M 267.7832 457.21281 C 267.7832 457.21281 270.7452 455.23813 271.73258000000004 455.23813 L 279.63133000000005 455.23813 C 280.61868000000004 455.23813 293.45415 458.20013 293.45415 458.20013 L 301.35290000000003 502.63061 C 301.35290000000003 502.63061 287.53008000000005 525.33952 297.40352 543.11172 C 297.40352 543.11172 294.44152 541.13703 280.61868000000004 542.12437 C 266.79584000000006 543.11171 242.11226000000005 546.07375 241.12491000000006 546.07375 C 240.13756000000006 546.07375 240.13757000000007 538.17499 241.12491000000006 536.2003100000001 C 242.11225000000005 534.2256300000001 240.13757000000007 535.2129600000001 240.13757000000007 530.27624 C 240.13757000000007 525.33952 237.17557000000008 516.45343 237.17557000000008 516.45343 L 223.35275000000007 466.09888 C 223.35275000000007 466.09888 241.12494000000007 456.22544 244.08698000000007 457.21278 C 247.04902000000007 458.20012 255.93511000000007 461.16216000000003 257.90979000000004 460.17478 C 259.88447 459.18739999999997 267.7832 457.21281 267.7832 457.21281 Z" stroke-linecap="round" />
</g>
<g transform="matrix(1 0 0 1 255.95 555.05)"  >
<path style="stroke: none; stroke-width: 1; stroke-dasharray: none; stroke-linecap: butt; stroke-dashoffset: 0; stroke-linejoin: miter; stroke-miterlimit: 4; fill: rgb(198,151,73); fill-rule: nonzero; opacity: 1;" vector-effect="non-scaling-stroke"  transform=" translate(-318.41, -500.74)" d="M 290.49212 459.1875 L 293.45412 458.20016 C 293.45412 458.20016 299.37818 457.21281 306.28959 463.13687999999996 C 313.20099999999996 469.06094999999993 338.872 486.83314 338.872 486.83314 C 338.872 486.83314 348.74544000000003 494.73189 345.78341 503.61798 C 342.82138 512.50407 337.88466 534.22565 323.0745 533.2383 C 323.0745 533.2383 314.1884 545.08643 309.25168 543.11175 C 304.31496000000004 541.1370700000001 300.36559 533.2383 303.32762 532.2509600000001 C 306.28965000000005 531.2636200000002 314.1884 521.3901800000001 314.1884 521.3901800000001 L 304.31496 502.6306400000001 L 301.35296 502.6306400000001 L 290.49218 496.7065800000001 Z" stroke-linecap="round" />
</g>
<g transform="matrix(1 0 0 1 163.03 584.31)"  >
<path style="stroke: none; stroke-width: 1; stroke-dasharray: none; stroke-linecap: butt; stroke-dashoffset: 0; stroke-linejoin: miter; stroke-miterlimit: 4; fill: rgb(198,151,73); fill-rule: nonzero; opacity: 1;" vector-effect="non-scaling-stroke"  transform=" translate(-222.97, -531.93)" d="M 231.25147 465.11157 L 223.35272 466.09891 C 223.35272 466.09891 216.44131000000002 469.06091 217.42866 481.89641 C 218.41601 494.73191 211.50459 552.98519 214.46666000000002 559.8965900000001 C 214.46666000000002 559.8965900000001 204.59322000000003 593.4662900000001 206.5679 594.4535900000001 C 208.54258 595.4408900000001 220.39072000000002 601.3650000000001 219.40338 597.4155900000001 C 218.41603999999998 593.46618 230.26416 565.82059 230.26416 565.82059 C 230.26416 565.82059 244.08698 551.01043 238.16291 530.2762 L 238.16291 513.49142 Z" stroke-linecap="round" />
</g>
<g transform="matrix(1 0 0 1 209.19 483.37)"  >
<path style="stroke: none; stroke-width: 1; stroke-dasharray: none; stroke-linecap: butt; stroke-dashoffset: 0; stroke-linejoin: miter; stroke-miterlimit: 4; fill: rgb(47,46,65); fill-rule: nonzero; opacity: 1;" vector-effect="non-scaling-stroke"  transform=" translate(-269.14, -430.99)" d="M 294.42253 447.737 L 281.87077 450.47145 L 280.25777 444.291 L 280.87797 450.68779 L 260.62935 455.099 L 259.73886 451.68708 L 260.08119 455.21846 L 247.11209 458.04384 L 244.33771 431.41184 C 241.48547 420.48343 251.89524 408.83583999999996 262.8236 405.98357999999996 L 267.67169 404.71826 C 275.69822 402.62339 290.28824000000003 404.52812 292.3831 412.55458999999996 C 288.71652 426.54868 282.46607 441.89025 294.42253 447.737 Z" stroke-linecap="round" />
</g>
</svg>